<?xml version="1.0" ?>
<!-- Uploaded to: SVG Repo, www.svgrepo.com, Generator: SVG Repo Mixer Tools -->
<svg fill="#000000" width="800px" height="800px" viewBox="0 0 64 64" xmlns="http://www.w3.org/2000/svg">
<g data-name="Layer 26" id="Layer_26">
<path d="M32,3A29,29,0,1,0,61,32,29,29,0,0,0,32,3Zm0,56A27,27,0,1,1,59,32,27,27,0,0,1,32,59ZM48,34H16a1,1,0,0,0,0,2H32v5c0,4.41,3.14,8,7,8s7-3.59,7-8V36h2a1,1,0,0,0,0-2Zm-4,7c0,3.31-2.24,6-5,6s-5-2.69-5-6V36H44ZM36.29,26.29,40.59,22l-4.3-4.29a1,1,0,0,1,1.42-1.42L42,20.59l4.29-4.3a1,1,0,0,1,1.42,1.42L43.41,22l4.3,4.29a1,1,0,0,1,0,1.42,1,1,0,0,1-1.42,0L42,23.41l-4.29,4.3a1,1,0,0,1-1.42,0A1,1,0,0,1,36.29,26.29Zm-20,0L20.59,22l-4.3-4.29a1,1,0,0,1,1.42-1.42L22,20.59l4.29-4.3a1,1,0,0,1,1.42,1.42L23.41,22l4.3,4.29a1,1,0,0,1,0,1.42,1,1,0,0,1-1.42,0L22,23.41l-4.29,4.3a1,1,0,0,1-1.42,0A1,1,0,0,1,16.29,26.29Z"/>
</g>
</svg>